# xmcd CD database file
#
# Track frame offsets:
#	150
#	19036
#	37961
#	57121
#	76275
#	92386
#	108521
#	128081
#	147526
#	164474
#	181339
#	195917
#	210605
#	225344
#	240149
#	259241
#	277992
#	293033
#	308106
#	323793
#	339528
#
# Disc length: 4545 seconds
#
# Revision: 0
# Processed by: cddbd v1.5.1PL0 Copyright (c) Steve Scherf et al.
# Submitted via: CDex 1.51
#
DISCID=1411bf15
DTITLE=Hal Leonard - Volume 34 - All-Time Standards
DYEAR=1900
DGENRE=Jazz
TTITLE0=Autumn in New York (Split Track)
TTITLE1=Autumn in New York
TTITLE2=Broadway (Split Track)
TTITLE3=Broadway
TTITLE4=Bye Bye Blackbird (Split Track)
TTITLE5=Bye Bye Blackbird
TTITLE6=Call me Irresponsible (Split Track)
TTITLE7=Call me Irresponsible
TTITLE8=Georgia on My Mind (Split Track)
TTITLE9=Georgia on My Mind
TTITLE10=Honeysuckle Rose (Split Track)
TTITLE11=Honeysuckle Rose
TTITLE12=I'll Remember April (Split Track)
TTITLE13=I'll Remember April
TTITLE14=Stardust (Split Track)
TTITLE15=Stardust
TTITLE16=There Is No Greater Love (Split Track)
TTITLE17=There Is No Greater Love
TTITLE18=The Very Thought of You (Split Track)
TTITLE19=The Very Thought of You
TTITLE20=Bb Tuning Notes
EXTD=
EXTT0=
EXTT1=
EXTT2=
EXTT3=
EXTT4=
EXTT5=
EXTT6=
EXTT7=
EXTT8=
EXTT9=
EXTT10=
EXTT11=
EXTT12=
EXTT13=
EXTT14=
EXTT15=
EXTT16=
EXTT17=
EXTT18=
EXTT19=
EXTT20=
PLAYORDER=
